<mxfile host="app.diagrams.net" agent="Mozilla/5.0 (Windows NT 10.0; Win64; x64) AppleWebKit/537.36 (KHTML, like Gecko) Chrome/127.0.0.0 Safari/537.36 Edg/127.0.0.0" version="24.7.7">
  <diagram id="C5RBs43oDa-KdzZeNtuy" name="Page-1">
    <mxGraphModel dx="1434" dy="754" grid="1" gridSize="10" guides="1" tooltips="1" connect="1" arrows="1" fold="1" page="1" pageScale="1" pageWidth="827" pageHeight="1169" math="0" shadow="0">
      <root>
        <mxCell id="WIyWlLk6GJQsqaUBKTNV-0" />
        <mxCell id="WIyWlLk6GJQsqaUBKTNV-1" parent="WIyWlLk6GJQsqaUBKTNV-0" />
        <mxCell id="BwK19qgW_GKxGDvcH2uL-27" style="edgeStyle=orthogonalEdgeStyle;rounded=0;orthogonalLoop=1;jettySize=auto;html=1;entryX=0.5;entryY=0;entryDx=0;entryDy=0;labelBackgroundColor=default;fontSize=12;" parent="WIyWlLk6GJQsqaUBKTNV-1" source="BwK19qgW_GKxGDvcH2uL-0" target="BwK19qgW_GKxGDvcH2uL-15" edge="1">
          <mxGeometry relative="1" as="geometry" />
        </mxCell>
        <mxCell id="BwK19qgW_GKxGDvcH2uL-28" style="edgeStyle=orthogonalEdgeStyle;rounded=0;orthogonalLoop=1;jettySize=auto;html=1;entryX=0.5;entryY=0;entryDx=0;entryDy=0;labelBackgroundColor=default;fontSize=12;" parent="WIyWlLk6GJQsqaUBKTNV-1" source="BwK19qgW_GKxGDvcH2uL-0" target="BwK19qgW_GKxGDvcH2uL-9" edge="1">
          <mxGeometry relative="1" as="geometry" />
        </mxCell>
        <mxCell id="BwK19qgW_GKxGDvcH2uL-29" style="edgeStyle=orthogonalEdgeStyle;rounded=0;orthogonalLoop=1;jettySize=auto;html=1;labelBackgroundColor=default;fontSize=12;" parent="WIyWlLk6GJQsqaUBKTNV-1" source="BwK19qgW_GKxGDvcH2uL-0" target="BwK19qgW_GKxGDvcH2uL-20" edge="1">
          <mxGeometry relative="1" as="geometry" />
        </mxCell>
        <mxCell id="BwK19qgW_GKxGDvcH2uL-0" value="«interface»&lt;br style=&quot;font-size: 12px;&quot;&gt;&lt;b style=&quot;font-size: 12px;&quot;&gt;i&lt;/b&gt;&lt;b style=&quot;font-size: 12px;&quot;&gt;Phone&lt;/b&gt;" style="html=1;whiteSpace=wrap;labelBackgroundColor=default;fontSize=12;" parent="WIyWlLk6GJQsqaUBKTNV-1" vertex="1">
          <mxGeometry x="475" y="280" width="110" height="50" as="geometry" />
        </mxCell>
        <mxCell id="BwK19qgW_GKxGDvcH2uL-9" value="&lt;span style=&quot;color: rgb(19, 19, 0); font-family: &amp;quot;trebuchet ms&amp;quot;, verdana, arial, sans-serif; font-size: 12px; text-align: start; text-wrap: nowrap;&quot;&gt;ReprodutorMusical&lt;/span&gt;" style="swimlane;fontStyle=1;align=center;verticalAlign=top;childLayout=stackLayout;horizontal=1;startSize=26;horizontalStack=0;resizeParent=1;resizeParentMax=0;resizeLast=0;collapsible=1;marginBottom=0;whiteSpace=wrap;html=1;labelBackgroundColor=default;fontSize=12;" parent="WIyWlLk6GJQsqaUBKTNV-1" vertex="1">
          <mxGeometry x="70" y="373" width="300" height="138" as="geometry" />
        </mxCell>
        <mxCell id="BwK19qgW_GKxGDvcH2uL-11" value="" style="line;strokeWidth=1;fillColor=none;align=left;verticalAlign=middle;spacingTop=-1;spacingLeft=3;spacingRight=3;rotatable=0;labelPosition=right;points=[];portConstraint=eastwest;strokeColor=inherit;labelBackgroundColor=default;fontSize=12;" parent="BwK19qgW_GKxGDvcH2uL-9" vertex="1">
          <mxGeometry y="26" width="300" height="8" as="geometry" />
        </mxCell>
        <mxCell id="BwK19qgW_GKxGDvcH2uL-12" value="+ &lt;font face=&quot;ui-monospace, SFMono-Regular, SF Mono, Menlo, Consolas, Liberation Mono, monospace&quot; color=&quot;#010409&quot;&gt;&lt;span style=&quot;white-space-collapse: break-spaces;&quot;&gt;menuReprodutorMusical&lt;/span&gt;&lt;/font&gt;()" style="text;strokeColor=none;fillColor=none;align=left;verticalAlign=top;spacingLeft=4;spacingRight=4;overflow=hidden;rotatable=0;points=[[0,0.5],[1,0.5]];portConstraint=eastwest;whiteSpace=wrap;html=1;labelBackgroundColor=default;fontSize=12;" parent="BwK19qgW_GKxGDvcH2uL-9" vertex="1">
          <mxGeometry y="34" width="300" height="26" as="geometry" />
        </mxCell>
        <mxCell id="2xHzMElEG4W4Jsek6VrC-0" value="+&amp;nbsp;&lt;span style=&quot;color: rgb(1, 4, 9); font-family: ui-monospace, SFMono-Regular, &amp;quot;SF Mono&amp;quot;, Menlo, Consolas, &amp;quot;Liberation Mono&amp;quot;, monospace; font-size: 12px; white-space-collapse: break-spaces;&quot;&gt;tocar&lt;/span&gt;(int numeroMusica)" style="text;strokeColor=none;fillColor=none;align=left;verticalAlign=top;spacingLeft=4;spacingRight=4;overflow=hidden;rotatable=0;points=[[0,0.5],[1,0.5]];portConstraint=eastwest;whiteSpace=wrap;html=1;labelBackgroundColor=default;fontSize=12;" vertex="1" parent="BwK19qgW_GKxGDvcH2uL-9">
          <mxGeometry y="60" width="300" height="26" as="geometry" />
        </mxCell>
        <mxCell id="BwK19qgW_GKxGDvcH2uL-13" value="+&amp;nbsp;&lt;span style=&quot;color: rgb(1, 4, 9); font-family: ui-monospace, SFMono-Regular, &amp;quot;SF Mono&amp;quot;, Menlo, Consolas, &amp;quot;Liberation Mono&amp;quot;, monospace; font-size: 12px; white-space-collapse: break-spaces;&quot;&gt;pausar&lt;/span&gt;()" style="text;strokeColor=none;fillColor=none;align=left;verticalAlign=top;spacingLeft=4;spacingRight=4;overflow=hidden;rotatable=0;points=[[0,0.5],[1,0.5]];portConstraint=eastwest;whiteSpace=wrap;html=1;labelBackgroundColor=default;fontSize=12;" parent="BwK19qgW_GKxGDvcH2uL-9" vertex="1">
          <mxGeometry y="86" width="300" height="26" as="geometry" />
        </mxCell>
        <mxCell id="BwK19qgW_GKxGDvcH2uL-14" value="+&amp;nbsp;&lt;span style=&quot;color: rgb(1, 4, 9); font-family: ui-monospace, SFMono-Regular, &amp;quot;SF Mono&amp;quot;, Menlo, Consolas, &amp;quot;Liberation Mono&amp;quot;, monospace; font-size: 12px; white-space-collapse: break-spaces;&quot;&gt;selecionarMusica(int n&lt;/span&gt;&lt;span style=&quot;color: rgb(1, 4, 9); font-family: ui-monospace, SFMono-Regular, &amp;quot;SF Mono&amp;quot;, Menlo, Consolas, &amp;quot;Liberation Mono&amp;quot;, monospace; font-size: 12px; white-space-collapse: break-spaces;&quot;&gt;umeroMusica)&lt;/span&gt;" style="text;strokeColor=none;fillColor=none;align=left;verticalAlign=top;spacingLeft=4;spacingRight=4;overflow=hidden;rotatable=0;points=[[0,0.5],[1,0.5]];portConstraint=eastwest;whiteSpace=wrap;html=1;labelBackgroundColor=default;fontSize=12;" parent="BwK19qgW_GKxGDvcH2uL-9" vertex="1">
          <mxGeometry y="112" width="300" height="26" as="geometry" />
        </mxCell>
        <mxCell id="BwK19qgW_GKxGDvcH2uL-15" value="&lt;div style=&quot;text-align: start; font-size: 12px;&quot;&gt;&lt;font style=&quot;font-size: 12px;&quot; face=&quot;trebuchet ms, verdana, arial, sans-serif&quot; color=&quot;#131300&quot;&gt;&lt;span style=&quot;font-size: 12px; text-wrap: nowrap;&quot;&gt;AparelhoTelefonico&lt;/span&gt;&lt;/font&gt;&lt;/div&gt;" style="swimlane;fontStyle=1;align=center;verticalAlign=top;childLayout=stackLayout;horizontal=1;startSize=26;horizontalStack=0;resizeParent=1;resizeParentMax=0;resizeLast=0;collapsible=1;marginBottom=0;whiteSpace=wrap;html=1;labelBackgroundColor=default;fontSize=12;" parent="WIyWlLk6GJQsqaUBKTNV-1" vertex="1">
          <mxGeometry x="380" y="373" width="300" height="112" as="geometry" />
        </mxCell>
        <mxCell id="BwK19qgW_GKxGDvcH2uL-16" value="" style="line;strokeWidth=1;fillColor=none;align=left;verticalAlign=middle;spacingTop=-1;spacingLeft=3;spacingRight=3;rotatable=0;labelPosition=right;points=[];portConstraint=eastwest;strokeColor=inherit;labelBackgroundColor=default;fontSize=12;" parent="BwK19qgW_GKxGDvcH2uL-15" vertex="1">
          <mxGeometry y="26" width="300" height="8" as="geometry" />
        </mxCell>
        <mxCell id="BwK19qgW_GKxGDvcH2uL-17" value="+&amp;nbsp;&lt;span style=&quot;color: rgb(1, 4, 9); font-family: ui-monospace, SFMono-Regular, &amp;quot;SF Mono&amp;quot;, Menlo, Consolas, &amp;quot;Liberation Mono&amp;quot;, monospace; font-size: 12px; white-space-collapse: break-spaces;&quot;&gt;ligar&lt;/span&gt;(String numeroTelefone)" style="text;strokeColor=none;fillColor=none;align=left;verticalAlign=top;spacingLeft=4;spacingRight=4;overflow=hidden;rotatable=0;points=[[0,0.5],[1,0.5]];portConstraint=eastwest;whiteSpace=wrap;html=1;labelBackgroundColor=default;fontSize=12;" parent="BwK19qgW_GKxGDvcH2uL-15" vertex="1">
          <mxGeometry y="34" width="300" height="26" as="geometry" />
        </mxCell>
        <mxCell id="BwK19qgW_GKxGDvcH2uL-18" value="+&amp;nbsp;&lt;span style=&quot;color: rgb(1, 4, 9); font-family: ui-monospace, SFMono-Regular, &amp;quot;SF Mono&amp;quot;, Menlo, Consolas, &amp;quot;Liberation Mono&amp;quot;, monospace; font-size: 12px; white-space-collapse: break-spaces;&quot;&gt;atender&lt;/span&gt;()" style="text;strokeColor=none;fillColor=none;align=left;verticalAlign=top;spacingLeft=4;spacingRight=4;overflow=hidden;rotatable=0;points=[[0,0.5],[1,0.5]];portConstraint=eastwest;whiteSpace=wrap;html=1;labelBackgroundColor=default;fontSize=12;" parent="BwK19qgW_GKxGDvcH2uL-15" vertex="1">
          <mxGeometry y="60" width="300" height="26" as="geometry" />
        </mxCell>
        <mxCell id="BwK19qgW_GKxGDvcH2uL-19" value="+&amp;nbsp;&lt;span style=&quot;color: rgb(1, 4, 9); font-family: ui-monospace, SFMono-Regular, &amp;quot;SF Mono&amp;quot;, Menlo, Consolas, &amp;quot;Liberation Mono&amp;quot;, monospace; font-size: 12px; white-space-collapse: break-spaces;&quot;&gt;iniciarCorreioVoz&lt;/span&gt;&lt;span style=&quot;color: rgb(1, 4, 9); font-family: ui-monospace, SFMono-Regular, &amp;quot;SF Mono&amp;quot;, Menlo, Consolas, &amp;quot;Liberation Mono&amp;quot;, monospace; font-size: 12px; white-space-collapse: break-spaces;&quot;&gt;(&lt;/span&gt;&lt;span style=&quot;color: rgb(1, 4, 9); font-family: ui-monospace, SFMono-Regular, &amp;quot;SF Mono&amp;quot;, Menlo, Consolas, &amp;quot;Liberation Mono&amp;quot;, monospace; font-size: 12px; white-space-collapse: break-spaces;&quot;&gt;)&lt;/span&gt;" style="text;strokeColor=none;fillColor=none;align=left;verticalAlign=top;spacingLeft=4;spacingRight=4;overflow=hidden;rotatable=0;points=[[0,0.5],[1,0.5]];portConstraint=eastwest;whiteSpace=wrap;html=1;labelBackgroundColor=default;fontSize=12;" parent="BwK19qgW_GKxGDvcH2uL-15" vertex="1">
          <mxGeometry y="86" width="300" height="26" as="geometry" />
        </mxCell>
        <mxCell id="BwK19qgW_GKxGDvcH2uL-20" value="&lt;div style=&quot;text-align: start; font-size: 12px;&quot;&gt;&lt;span style=&quot;color: rgb(19, 19, 0); font-family: &amp;quot;trebuchet ms&amp;quot;, verdana, arial, sans-serif; font-size: 12px; text-wrap: nowrap;&quot;&gt;NavegadorInternet&lt;/span&gt;&lt;br style=&quot;font-size: 12px;&quot;&gt;&lt;/div&gt;" style="swimlane;fontStyle=1;align=center;verticalAlign=top;childLayout=stackLayout;horizontal=1;startSize=26;horizontalStack=0;resizeParent=1;resizeParentMax=0;resizeLast=0;collapsible=1;marginBottom=0;whiteSpace=wrap;html=1;labelBackgroundColor=default;fontSize=12;" parent="WIyWlLk6GJQsqaUBKTNV-1" vertex="1">
          <mxGeometry x="690" y="373" width="300" height="164" as="geometry" />
        </mxCell>
        <mxCell id="BwK19qgW_GKxGDvcH2uL-21" value="" style="line;strokeWidth=1;fillColor=none;align=left;verticalAlign=middle;spacingTop=-1;spacingLeft=3;spacingRight=3;rotatable=0;labelPosition=right;points=[];portConstraint=eastwest;strokeColor=inherit;labelBackgroundColor=default;fontSize=12;" parent="BwK19qgW_GKxGDvcH2uL-20" vertex="1">
          <mxGeometry y="26" width="300" height="8" as="geometry" />
        </mxCell>
        <mxCell id="2xHzMElEG4W4Jsek6VrC-1" value="+ menuNavegadorInternet&lt;span style=&quot;color: rgb(1, 4, 9); font-family: ui-monospace, SFMono-Regular, &amp;quot;SF Mono&amp;quot;, Menlo, Consolas, &amp;quot;Liberation Mono&amp;quot;, monospace; font-size: 12px; white-space-collapse: break-spaces;&quot;&gt;(&lt;/span&gt;&lt;span style=&quot;color: rgb(1, 4, 9); font-family: ui-monospace, SFMono-Regular, &amp;quot;SF Mono&amp;quot;, Menlo, Consolas, &amp;quot;Liberation Mono&amp;quot;, monospace; font-size: 12px; white-space-collapse: break-spaces;&quot;&gt;)&lt;/span&gt;" style="text;strokeColor=none;fillColor=none;align=left;verticalAlign=top;spacingLeft=4;spacingRight=4;overflow=hidden;rotatable=0;points=[[0,0.5],[1,0.5]];portConstraint=eastwest;whiteSpace=wrap;html=1;labelBackgroundColor=default;fontSize=12;" vertex="1" parent="BwK19qgW_GKxGDvcH2uL-20">
          <mxGeometry y="34" width="300" height="26" as="geometry" />
        </mxCell>
        <mxCell id="BwK19qgW_GKxGDvcH2uL-22" value="+&amp;nbsp;&lt;span style=&quot;color: rgb(1, 4, 9); font-family: ui-monospace, SFMono-Regular, &amp;quot;SF Mono&amp;quot;, Menlo, Consolas, &amp;quot;Liberation Mono&amp;quot;, monospace; font-size: 12px; white-space-collapse: break-spaces;&quot;&gt;exibirPagina&lt;/span&gt;(&lt;span style=&quot;color: rgb(1, 4, 9); font-family: ui-monospace, SFMono-Regular, &amp;quot;SF Mono&amp;quot;, Menlo, Consolas, &amp;quot;Liberation Mono&amp;quot;, monospace; font-size: 12px; white-space-collapse: break-spaces;&quot;&gt;String url&lt;/span&gt;)" style="text;strokeColor=none;fillColor=none;align=left;verticalAlign=top;spacingLeft=4;spacingRight=4;overflow=hidden;rotatable=0;points=[[0,0.5],[1,0.5]];portConstraint=eastwest;whiteSpace=wrap;html=1;labelBackgroundColor=default;fontSize=12;" parent="BwK19qgW_GKxGDvcH2uL-20" vertex="1">
          <mxGeometry y="60" width="300" height="26" as="geometry" />
        </mxCell>
        <mxCell id="BwK19qgW_GKxGDvcH2uL-23" value="+&amp;nbsp;&lt;span style=&quot;color: rgb(1, 4, 9); font-family: ui-monospace, SFMono-Regular, &amp;quot;SF Mono&amp;quot;, Menlo, Consolas, &amp;quot;Liberation Mono&amp;quot;, monospace; font-size: 12px; white-space-collapse: break-spaces;&quot;&gt;adicionarAba&lt;/span&gt;()" style="text;strokeColor=none;fillColor=none;align=left;verticalAlign=top;spacingLeft=4;spacingRight=4;overflow=hidden;rotatable=0;points=[[0,0.5],[1,0.5]];portConstraint=eastwest;whiteSpace=wrap;html=1;labelBackgroundColor=default;fontSize=12;" parent="BwK19qgW_GKxGDvcH2uL-20" vertex="1">
          <mxGeometry y="86" width="300" height="26" as="geometry" />
        </mxCell>
        <mxCell id="BwK19qgW_GKxGDvcH2uL-24" value="+&amp;nbsp;&lt;span style=&quot;color: rgb(1, 4, 9); font-family: ui-monospace, SFMono-Regular, &amp;quot;SF Mono&amp;quot;, Menlo, Consolas, &amp;quot;Liberation Mono&amp;quot;, monospace; font-size: 12px; white-space-collapse: break-spaces;&quot;&gt;atualizarPagina&lt;/span&gt;&lt;span style=&quot;color: rgb(1, 4, 9); font-family: ui-monospace, SFMono-Regular, &amp;quot;SF Mono&amp;quot;, Menlo, Consolas, &amp;quot;Liberation Mono&amp;quot;, monospace; font-size: 12px; white-space-collapse: break-spaces;&quot;&gt;(&lt;/span&gt;&lt;span style=&quot;color: rgb(1, 4, 9); font-family: ui-monospace, SFMono-Regular, &amp;quot;SF Mono&amp;quot;, Menlo, Consolas, &amp;quot;Liberation Mono&amp;quot;, monospace; font-size: 12px; white-space-collapse: break-spaces;&quot;&gt;)&lt;/span&gt;" style="text;strokeColor=none;fillColor=none;align=left;verticalAlign=top;spacingLeft=4;spacingRight=4;overflow=hidden;rotatable=0;points=[[0,0.5],[1,0.5]];portConstraint=eastwest;whiteSpace=wrap;html=1;labelBackgroundColor=default;fontSize=12;" parent="BwK19qgW_GKxGDvcH2uL-20" vertex="1">
          <mxGeometry y="112" width="300" height="26" as="geometry" />
        </mxCell>
        <mxCell id="BwK19qgW_GKxGDvcH2uL-25" value="+ removerAba&lt;span style=&quot;color: rgb(1, 4, 9); font-family: ui-monospace, SFMono-Regular, &amp;quot;SF Mono&amp;quot;, Menlo, Consolas, &amp;quot;Liberation Mono&amp;quot;, monospace; font-size: 12px; white-space-collapse: break-spaces;&quot;&gt;(&lt;/span&gt;&lt;span style=&quot;color: rgb(1, 4, 9); font-family: ui-monospace, SFMono-Regular, &amp;quot;SF Mono&amp;quot;, Menlo, Consolas, &amp;quot;Liberation Mono&amp;quot;, monospace; font-size: 12px; white-space-collapse: break-spaces;&quot;&gt;)&lt;/span&gt;" style="text;strokeColor=none;fillColor=none;align=left;verticalAlign=top;spacingLeft=4;spacingRight=4;overflow=hidden;rotatable=0;points=[[0,0.5],[1,0.5]];portConstraint=eastwest;whiteSpace=wrap;html=1;labelBackgroundColor=default;fontSize=12;" parent="BwK19qgW_GKxGDvcH2uL-20" vertex="1">
          <mxGeometry y="138" width="300" height="26" as="geometry" />
        </mxCell>
      </root>
    </mxGraphModel>
  </diagram>
</mxfile>
